<?xml version="1.0" encoding="UTF-8"?>
<svg id="Layer_6" data-name="Layer 6" xmlns="http://www.w3.org/2000/svg" viewBox="0 0 1276.15 1252.89">
  <defs>
    <style>
      .cls-1 {
        fill: #008b60;
        stroke-width: 0px;
      }
    </style>
  </defs>
  <path class="cls-1" d="M900.7,724.13c-18.57-12.76-40.39-19.81-62.07-25.95-11.87-3.37-23.96-6.52-36.16-8.49.86-.36,1.69-.73,2.53-1.09,3.2-1.39,6.32-2.79,9.26-4.15,30.96-14.77,59.96-31.77,91.38-46.47,3.07-1.4,6.16-2.78,9.25-4.17,3.1-1.38,6.21-2.75,9.33-4.13-42-51-126-32-172.79,2.54-2.46,2.19-4.8,4.4-7.04,6.62-2.23,2.21-4.41,4.46-6.55,6.74-2.15,2.27-4.26,4.57-6.35,6.9-1.56,1.75-3.11,3.51-4.65,5.28-4.2,5.64-10.09,10.75-15.54,16.03-.03-1.03-.05-2.06-.06-3.09-.05-4.91-1.43-9.71-2.12-14.6-.94-6.63-1.14-13.14-1.42-19.75-.1-2.53-.23-5.06-.38-7.61,0-.02-.01-.04-.01-.06,5.33-1.46,10.77-3.33,14.71-7.14,6.75,7.37,18.3,11.64,25.36,5.36,3.11-2.76,4.04-7.22,4.38-11.38.23-3.04.24-6.19-.82-9.04-5.44-14.67-30.62-16.12-34.07.79-.21,1.04-.27,2.11-.2,3.18-1.96,1.31-3.98,2.51-6.1,3.54-1.56.75-3.18,1.4-4.84,1.91-.02-.28-.04-.57-.07-.85-.25-3.16-.45-6.34-.6-9.54,1.47-4.67,4.16-8.97,7.82-12.23,1.51-1.33,3.19-2.54,4.7-3.9,1.46,1.39,3.1,2.6,4.87,3.56,1.95,1.06,4.1,1.86,6.32,1.94,3,.1,5.89-1.11,8.46-2.65,5.89-3.54,10.72-9.15,12.36-15.81,1.65-6.66-.27-14.33-5.51-18.76-3.29-2.76-7.53-4.11-11.77-4.81-6.05-.99-12.9-.51-17.31,3.76-5.55,5.37-6.05,15.15-3.98,22.16.45,1.5,1.05,2.96,1.78,4.35-2.55,2.36-5.36,4.43-8.38,6.14-.01-.5-.03-1-.05-1.5-.5-12.99-1.32-25.87-4.5-37.96.78-.41,1.53-.89,2.23-1.42,3.11-2.36,5.41-5.64,7.14-9.14,2.79-5.63,4.11-12.71.69-17.99-6.11-9.47-25.94-8.29-32.2.7s1.33,25.52,11.38,28.98c-2.57,11.78-2.51,24.32-2.19,36.86-2.12-1.38-4.12-2.94-5.98-4.67.73-1.39,1.33-2.85,1.78-4.35,2.08-7.01,1.58-16.79-3.98-22.16-4.41-4.27-11.26-4.75-17.31-3.76-4.24.7-8.48,2.05-11.77,4.81-5.24,4.43-7.16,12.1-5.51,18.76,1.64,6.66,6.47,12.27,12.36,15.81,2.57,1.54,5.46,2.75,8.46,2.65,2.22-.08,4.37-.88,6.32-1.94,1.77-.96,3.41-2.17,4.87-3.56,1.51,1.36,3.19,2.57,4.7,3.9,2.7,2.41,4.87,5.38,6.42,8.65.08,4.61.06,9.19-.15,13.69-1.35-.46-2.68-1.01-3.96-1.63-2.12-1.03-4.14-2.23-6.1-3.54.07-1.07.01-2.14-.2-3.18-3.45-16.91-28.63-15.46-34.07-.79-1.06,2.85-1.05,6-.82,9.04.34,4.16,1.27,8.62,4.38,11.38,7.06,6.28,18.61,2.01,25.36-5.36,4.06,3.92,9.69,5.79,15.16,7.26.28.07.18,12.49.28,13.76.38,4.89-.45,10.08-1.03,14.95-.55,4.64-.7,10.27-2.28,14.68-.86,2.39-.95,1.99-2.88.18-1.68-1.58-3.36-3.17-5.03-4.77-3.21-3.09-6.37-6.26-9.04-9.84-1.54-1.77-3.09-3.53-4.65-5.28-2.09-2.33-4.2-4.63-6.35-6.9-2.14-2.28-4.32-4.53-6.55-6.74-2.24-2.22-4.58-4.43-7.04-6.62-46.79-34.54-130.79-53.54-172.79-2.54,3.12,1.38,6.23,2.75,9.33,4.13,3.09,1.39,6.18,2.77,9.25,4.17,31.42,14.7,60.42,31.7,91.38,46.47,2.94,1.36,6.06,2.76,9.26,4.15.84.36,1.67.73,2.53,1.09-12.2,1.97-24.29,5.12-36.16,8.49-21.68,6.14-43.5,13.19-62.07,25.95-18.57,12.75-33.73,32.07-36.63,54.41,13.06-13.41,33.3-16.04,51.91-18.06,25.53-2.77,51.04-5.79,76.51-9.06,26.53-3.4,53.27-7.15,78.6-15.61,11.45-1.37,22.9-6.82,34.34-6.61,2.17-.12,4.33-.15,6.47-.09,2.94.4,5.74.93,8.46,1.53.6.14,1.19.27,1.78.41.01.01.02.01.03.01,2.09.49,4.16,1,6.22,1.54.71.19,1.42.37,2.14.56,27.48,10.37,56.89,14.52,86.04,18.26,25.47,3.27,50.98,6.29,76.51,9.06,18.61,2.02,38.85,4.65,51.91,18.06-2.9-22.34-18.06-41.66-36.63-54.41ZM740.48,604.26c.26-.4.65-.76,1.13-.87.52-.12.97-.03,1.45.19.29.14.56.27.84.42.21-.81.95-1.49,1.82-1.45,1.02.05,1.9.83,1.89,1.89,0,.61-.05,1.21-.13,1.82,1.25.91,2.59,2.06,2.52,3.69-.05.99-.84,1.94-1.89,1.89-.87-.03-1.71-.65-1.87-1.52-.15.31-.31.62-.49.93-.49.85-1.73,1.23-2.58.68-.86-.56-1.21-1.67-.68-2.59.21-.37.41-.75.58-1.15.04-.09.06-.19.09-.28-.65-.38-1.31-.75-2-1.06-.41-.19-.76-.71-.87-1.13-.12-.45-.07-1.06.19-1.46ZM735.1,561.3c.33-1.05,1.28-1.52,2.32-1.33.37.07.74.16,1.11.26-.22-.94.36-2.03,1.33-2.25,1-.23,2.04.3,2.32,1.31.26.92.41,1.86.5,2.8,1.17.75,2.24,1.63,3.14,2.66.66.74.79,1.95,0,2.67-.72.66-1.97.79-2.67,0-.23-.26-.47-.51-.71-.74-.12.54-.25,1.1-.42,1.62-.3.95-1.32,1.65-2.32,1.33-.95-.3-1.65-1.32-1.32-2.33.21-.64.37-1.3.48-1.97.01-.02.01-.06.02-.1.02-.13.03-.27.05-.4.01-.16.01-.31.02-.47-.14-.06-.28-.12-.42-.17-.69-.25-1.39-.44-2.1-.57-.98-.18-1.62-1.41-1.33-2.32ZM657.31,563.62c-.71.13-1.41.32-2.1.57-.14.05-.28.11-.42.17.01.16.01.31.02.47.02.13.03.27.05.4.01.04.01.08.02.1.11.67.27,1.33.48,1.97.33,1.01-.37,2.03-1.32,2.33-1,.32-2.02-.38-2.32-1.33-.17-.52-.3-1.08-.42-1.62-.24.23-.48.48-.71.74-.7.79-1.95.66-2.67,0-.79-.72-.66-1.93,0-2.67.9-1.03,1.97-1.91,3.14-2.66.09-.94.24-1.88.5-2.8.28-1.01,1.32-1.54,2.32-1.31.97.22,1.55,1.31,1.33,2.25.37-.1.74-.19,1.11-.26,1.04-.19,1.99.28,2.32,1.33.29.91-.35,2.14-1.33,2.32ZM653.45,605.72c-.11.42-.46.94-.87,1.13-.69.31-1.35.68-2,1.06.03.09.05.19.09.28.17.4.37.78.58,1.15.53.92.18,2.03-.68,2.59-.85.55-2.09.17-2.58-.68-.18-.31-.34-.62-.49-.93-.16.87-1,1.49-1.87,1.52-1.05.05-1.84-.9-1.89-1.89-.07-1.63,1.27-2.78,2.52-3.69-.08-.61-.13-1.21-.13-1.82-.01-1.06.87-1.84,1.89-1.89.87-.04,1.61.64,1.82,1.45.28-.15.55-.28.84-.42.48-.22.93-.31,1.45-.19.48.11.87.47,1.13.87s.31,1.01.19,1.46ZM689.02,526.66c-.98-.22-1.61-1.38-1.32-2.33.33-1.08.85-2.11,1.52-3.03-.15-.07-.3-.13-.45-.19-.99-.41-1.58-1.23-1.33-2.33.21-.91,1.41-1.7,2.33-1.33.82.35,1.64.69,2.47,1.03.96-.59,2.02-1.03,3.15-1.25,1.04-.21,1.99.29,2.33,1.31.21.68-.08,1.49-.62,1.96.52.22,1.03.43,1.55.64.97.41,1.57,1.23,1.31,2.33-.2.91-1.4,1.7-2.32,1.32-1.59-.66-3.19-1.33-4.78-1.98-.16.16-.31.32-.46.5-.01,0-.01.01-.01.02-.08.1-.15.2-.21.3-.25.36-.45.74-.63,1.14-.07.18-.15.37-.21.56-.31,1.02-1.3,1.56-2.32,1.33ZM645.42,701.71c-3.14-.61-6.31-1.09-9.52-1.45-5.75-.44-11.54-.61-17.33-.55-24.57.26-49.4,4.67-73.14,10.63-2.38.68-4.74,1.41-7.08,2.18-4.69,1.56-9.31,3.31-13.86,5.28-3.08,1.21-6.15,2.51-9.2,3.88-2.91,1.27-5.75,2.6-8.55,4.02-8.4,4.26-16.46,9.28-23.96,15.28,5.5-7,12.5-12.5,20.09-17.09,2.53-1.54,5.13-2.97,7.76-4.32,2.57-1.29,5.36-2.44,8.14-3.62,2.78-1.18,5.55-2.39,8.08-3.81,3.44-1.32,6.83-2.59,10.08-3.8,2.33-.87,4.67-1.7,7.02-2.46,2.35-.77,4.71-1.49,7.07-2.15,17.98-3.73,36.06-7.55,54.56-8.39,10.07-.45,20.25-.01,30.62,1.81,3.2.71,6.34,1.62,9.44,2.75,3.09,1.13,6.14,2.48,9.14,4.08-3.1-.9-6.22-1.65-9.36-2.27ZM674.21,693.75c-5.21-8.09-10.94-15.78-17.16-22.94-2.08-2.39-4.21-4.72-6.41-6.99-38.29-40.41-93.29-53.41-146.29-51.41,52-19,112,1,148.28,42.38,2.4,2.67,4.71,5.42,6.94,8.24,6.67,8.45,12.53,17.52,17.57,27.01l.8,9.09c-1.23-1.8-2.47-3.59-3.73-5.38ZM719.53,693.75c-1.26,1.79-2.5,3.58-3.73,5.38l.8-9.09c5.04-9.49,10.9-18.56,17.57-27.01,2.23-2.82,4.54-5.57,6.94-8.24,36.28-41.38,96.28-61.38,148.28-42.38-53-2-108,11-146.29,51.41-2.2,2.27-4.33,4.6-6.41,6.99-6.22,7.16-11.95,14.85-17.16,22.94ZM887,725.7c-2.8-1.42-5.64-2.75-8.55-4.02-3.05-1.37-6.12-2.67-9.2-3.88-4.55-1.97-9.17-3.72-13.86-5.28-2.34-.77-4.7-1.5-7.08-2.18-23.74-5.96-48.57-10.37-73.14-10.63-5.79-.06-11.58.11-17.33.55-3.21.36-6.38.84-9.52,1.45-3.14.62-6.26,1.37-9.36,2.27,3-1.6,6.05-2.95,9.14-4.08,3.1-1.13,6.24-2.04,9.44-2.75,10.37-1.82,20.55-2.26,30.62-1.81,18.5.84,36.58,4.66,54.56,8.39,2.36.66,4.72,1.38,7.07,2.15,2.35.76,4.69,1.59,7.02,2.46,3.25,1.21,6.64,2.48,10.08,3.8,2.53,1.42,5.3,2.63,8.08,3.81,2.78,1.18,5.57,2.33,8.14,3.62,2.63,1.35,5.23,2.78,7.76,4.32,7.59,4.59,14.59,10.09,20.09,17.09-7.5-6-15.56-11.02-23.96-15.28Z"/>
  <g>
    <path class="cls-1" d="M515.54,833.04c-18.25-26.04-5.2-46.81,21.02-55.12,11.6-3.69,22.36-4.79,31.35-2.02,1.33.44,2.13,1.27,2.48,2.22,1.65,4.49,3,15.76,2.69,22.98,0,2.33-2.04,4.04-5.42,4.07-1.08,0-2.17,0-3.25,0-2.93.05-4.66-1.66-4.57-4.31.27-5.5-3.83-9.3-19.76-4.16-15.43,5.1-20.92,17.18-12.42,30.67,8.45,13.43,22.59,17.57,36.41,13.07,7.85-2.55,13.41-6.74,16.57-12.02.82-1.39,2.25-1.38,3.23-.34,3.81,3.8,7.89,8.96,10.39,12.99.7,1.12.66,2.03,0,2.97-3.91,5.63-10.55,10.02-19.59,12.89-18.51,5.81-41.35,1.44-59.12-23.89Z"/>
    <path class="cls-1" d="M587.9,820.46c-7.2-18.13-.65-32.46,19.87-36.14,21.27-3.63,33.27,7.43,36.23,26.32,2.97,19.04-3.12,31.33-19.74,34.14-16.02,2.82-29.14-6.07-36.35-24.33ZM633.53,811.88c-1.6-8.01-8.44-12.13-21.07-9.95-12.21,2.17-16.89,8.31-14.17,16.12,2.73,7.86,9.92,11.15,21.06,9.18,11.4-1.96,15.78-7.27,14.17-15.34Z"/>
    <path class="cls-1" d="M653.25,838.69c-1.08-.02-1.63-.47-1.93-1.56-.54-1.81-1.09-4.37-1.47-6.69-.38-2.32-.68-4.9-.73-6.76-.05-1.11.35-1.78,1.48-1.88,2.41-.31,4.83-.59,7.24-.86.63-.05,1.18-.71,1.11-1.32-1.73-14.16-3.37-28.33-4.94-42.51-.07-.61-.55-.95-1.42-.89-1.03.07-6.7,1.91-8.15,2.05-1.31.12-2.29-.52-2.59-1.49-.58-1.93-1.17-4.86-1.52-7.18-.36-2.45-.59-5.04-.57-7.03.01-1,.85-1.7,2.04-2.06,7.91-2.49,18.68-4.78,31.28-5.15,29.38-.74,44.69,11.23,42.9,27.94-1.51,14.63-12.56,24.83-35.12,25.09-3.52.06-6.4.02-9.04-.12-.65.02-1.02.41-.98,1.03.23,3.12.46,6.24.69,9.36.06.74.59,1.21,1.35,1.18,5.02-.2,11.05-.03,13.3.22,1.13.12,1.63.61,1.78,1.72.28,1.85.44,4.44.47,6.79.04,2.35-.04,4.94-.24,6.79-.1,1.11-.56,1.6-1.61,1.73-2.81.24-10.28.6-16.61.92-6.33.28-13.87.65-16.73.68ZM699.43,785.16c.3-7.21-6.23-12.23-24.39-11.83-1.76.05-3.67.23-5.28.42-.74.03-1.28.67-1.24,1.29.45,7.11.92,14.21,1.41,21.32.04.62.49,1.09,1.16,1.07,2.19.16,4.77.21,7.08.15,14.43-.27,20.94-4.97,21.25-12.42Z"/>
    <path class="cls-1" d="M718.77,838.39c-1.03-.21-1.45-.74-1.46-1.85-.06-1.86.07-4.46.3-6.79.23-2.34.6-4.91,1.03-6.74.23-1.1.78-1.55,1.91-1.58,1.38-.01,4.63.02,7.84.36.74.08,1.32-.48,1.41-1.1.95-6.66,1.91-13.32,2.89-19.98.11-.74-.36-1.28-1.16-1.36-.4-.04-.81-.08-1.21-.12-3.89-.39-8.03-.98-9.89-1.37-1.2-.21-1.69-.74-1.72-1.86-.09-1.86.02-4.46.25-6.8.23-2.34.62-4.91,1.1-6.74.25-1.1.87-1.55,2.17-1.57,2.02-.1,7.05.06,11.9.56,4.85.49,9.63,1.33,11.71,1.85,1.25.29,1.72.85,1.65,1.97-.07,1.87-.43,4.44-.88,6.76-1.93,10-3.82,20-5.66,30-.11.61.27,1.29,1,1.39,3.2.44,6.33,1.18,7.65,1.51,1.08.3,1.45.86,1.33,1.98-.17,1.86-.62,4.43-1.14,6.73-.52,2.31-1.21,4.84-1.84,6.62-.36,1.07-.92,1.48-1.98,1.44-2.34-.13-8.46-.8-13.64-1.41-5.17-.64-11.27-1.46-13.57-1.89ZM725.47,764.03c.62-5.64,6.58-9.58,16.21-8.54,9.63,1.07,14.09,6.14,12.89,11.72-1.21,5.6-7.17,9.21-16.13,8.22-8.96-.97-13.58-5.74-12.96-11.4Z"/>
    <path class="cls-1" d="M760.12,803.63c6.64-29.46,31.14-38.97,56.7-31.98,11.31,3.09,20.19,7.78,24.78,14.55.65,1.02.6,2.08.13,2.99-2.27,4.31-10.06,13.69-15.9,19.09-1.81,1.8-4.66,2.06-7.18.35-.8-.56-1.6-1.11-2.41-1.67-2.2-1.46-2.15-3.67-.04-5.67,4.48-4.11,4.29-9.15-11.24-13.32-15.1-3.93-28,2.65-32.14,17.42-4.11,14.71,2.66,25.08,16.05,28.65,7.6,2.03,14.92,1.64,21.34-.81,1.69-.65,2.74.09,2.66,1.39-.12,4.88-1.11,10.96-2.37,15.35-.34,1.22-1.08,1.9-2.31,2.29-7.28,2.34-15.56,2.32-24.27-.06-17.79-4.93-30.25-19.88-23.82-48.55Z"/>
    <path class="cls-1" d="M821.83,830.81c8.76-17.66,24.76-25.36,43.57-17.46,19.42,8.36,20.33,23.23,7.52,39.2-12.85,16.12-27.63,22.25-42.64,15.77-14.51-6.16-17.26-19.73-8.46-37.51ZM863.63,847.97c5.14-6.96,2.97-13.74-8.54-18.67-11.16-4.71-19.49-2.4-23.55,5.01-4.08,7.46-1.28,13.69,8.86,17.98,10.34,4.44,18.07,2.69,23.23-4.32Z"/>
  </g>
  <g>
    <path class="cls-1" d="M709.1,498.36c27.31-.41,45.16,25.6,48.2,50.48,0,6.41,12.91,6.41,13.29,1.51,8.35-37.32-29.62-79.16-67.21-68.23-6.07,1.51-2.66,15.08,5.73,16.24h0Z"/>
    <path class="cls-1" d="M708.19,450.73c47.57-4.04,79.09,37.8,88.75,79.14,1.09,4.66,1.9,9.38,2.43,14.14.74,5.41,1.14,10.92,1.21,16.52,0,6.41,11.39,6.79,14.81,1.13,1.66-4.62,2.73-9.16,3.3-13.64.56-4.48.61-8.89.2-13.29-.77-4.73-1.81-9.48-3.12-14.21-12.54-51.98-55.82-95.7-111.64-86.66-7.97.38-5.69,15.83,4.07,16.86h0Z"/>
    <path class="cls-1" d="M702.7,398.63c40.66.19,80.25,23.49,105.66,54.21,2.17,2.62,4.26,5.32,6.26,8.09,2,2.77,3.91,5.61,5.73,8.52,20.47,26.62,16.3,61.3,33.01,89.2,3.04,5.65,13.29-4.9,13.67-9.8.38-36.94-17.47-69.36-37.1-98.92-2.97-4.08-6.13-8.05-9.45-11.87-29.86-34.45-72.96-57.86-117.62-58.07-12.09-.06-12.26,18.59-.15,18.65h0Z"/>
  </g>
</svg>